<svg xmlns="http://www.w3.org/2000/svg" viewBox="0 0 33.45 39.18">
    <defs>
        <style>.cls-1{fill:#fff;}.cls-1,.cls-2{fill-rule:evenodd;}.cls-2{fill:#010101;}</style>
    </defs>
    <g id="Layer_2" data-name="Layer 2">
        <g id="Layer_1-2" data-name="Layer 1">
            <path class="cls-1"
                  d="M10.46,3,16.11.15a1.34,1.34,0,0,1,1.23,0L32.73,8a1.3,1.3,0,0,1,.72,1.15V30a1.31,1.31,0,0,1-.72,1.16L17.34,39a1.4,1.4,0,0,1-1.23,0L.71,31.15A1.3,1.3,0,0,1,0,30V9.19A1.29,1.29,0,0,1,.71,8Z"/>
            <path class="cls-2"
                  d="M31.62,9a.85.85,0,0,1,.48.78V29.45a.88.88,0,0,1-.48.78L17.14,37.65a.87.87,0,0,1-.83,0L1.83,30.23a.87.87,0,0,1-.49-.78V9.74A.85.85,0,0,1,1.83,9L15.89,1.75a1.36,1.36,0,0,1,1.21,0Z"/>
            <path class="cls-1"
                  d="M14.94,14.42l-.06,0a1.33,1.33,0,0,0-1.76.45L7.55,23.56a1.32,1.32,0,0,0-.2.7V26.4A1.3,1.3,0,0,0,8,27.55l9.52,5.11a1.29,1.29,0,0,1,0,2.3l-.2.1a1.34,1.34,0,0,1-1.23,0L4.3,29a1.29,1.29,0,0,1-.71-1.16V11.34a1.29,1.29,0,0,1,.73-1.16L10,7.39a1.35,1.35,0,0,1,1.22,0l11.31,5.9A1.3,1.3,0,0,1,23,15.2L17.45,23a1.28,1.28,0,0,0,.46,1.88h0a1.32,1.32,0,0,0,1.73-.41l6.23-9.06a1.26,1.26,0,0,0,.23-.73V13a1.3,1.3,0,0,0-.7-1.15L15.58,6.7a1.3,1.3,0,0,1,0-2.31l.52-.27a1.34,1.34,0,0,1,1.23,0l11.81,6.05a1.3,1.3,0,0,1,.71,1.16V27.85A1.29,1.29,0,0,1,29.15,29l-5.91,3A1.38,1.38,0,0,1,22,32L10.81,26a1.29,1.29,0,0,1-.48-1.84l5.09-7.93A1.29,1.29,0,0,0,14.94,14.42Z"/>
        </g>
    </g>
</svg>