<svg xmlns="http://www.w3.org/2000/svg" viewBox="0 0 400 300" width="406" height="306" class="illustration styles_illustrationTablet__1DWOa"><g id="_018" data-name="018"><rect x="280.99" y="64.59" width="90.64" height="88.7" fill="#fff"></rect><path d="M371.63,153.75H281a.46.46,0,0,1-.46-.46V64.59a.46.46,0,0,1,.46-.46h90.64a.47.47,0,0,1,.46.46v88.7A.47.47,0,0,1,371.63,153.75Zm-90.18-.92h89.72V65.05H281.45Z" fill="#d1d3d4"></path><rect x="280.99" y="136.9" width="90.64" height="16.39" fill="#fff"></rect><path d="M371.63,153.75H281a.46.46,0,0,1-.46-.46V136.9a.45.45,0,0,1,.46-.46h90.64a.46.46,0,0,1,.46.46v16.39A.47.47,0,0,1,371.63,153.75Zm-90.18-.92h89.72V137.36H281.45Z" fill="#d1d3d4"></path><polygon points="111.5 149.59 28.37 149.59 28.37 85.9 39.73 74.31 111.5 74.31 111.5 149.59" fill="#fff"></polygon><path d="M111.5,150.05H28.37a.46.46,0,0,1-.46-.46V85.9a.48.48,0,0,1,.13-.32L39.4,74a.47.47,0,0,1,.33-.14H111.5a.46.46,0,0,1,.46.46v75.28A.45.45,0,0,1,111.5,150.05Zm-82.67-.92H111V74.77H39.93L28.83,86.09Z" fill="#d1d3d4"></path><path d="M104.34,93.06H35.81a.46.46,0,0,1,0-.92h68.53a.46.46,0,1,1,0,.92Z" fill="#d1d3d4"></path><path d="M104.34,104H35.81a.46.46,0,1,1,0-.92h68.53a.46.46,0,1,1,0,.92Z" fill="#d1d3d4"></path><path d="M104.34,114.86H35.81a.46.46,0,1,1,0-.92h68.53a.46.46,0,1,1,0,.92Z" fill="#d1d3d4"></path><path d="M104.34,125.76H35.81a.46.46,0,0,1-.46-.46.45.45,0,0,1,.46-.46h68.53a.46.46,0,0,1,.47.46A.47.47,0,0,1,104.34,125.76Z" fill="#d1d3d4"></path><path d="M104.34,136.66H35.81a.46.46,0,0,1-.46-.46.45.45,0,0,1,.46-.46h68.53a.46.46,0,0,1,.47.46A.47.47,0,0,1,104.34,136.66Z" fill="#d1d3d4"></path><path d="M39.69,86.23H28.51a.47.47,0,0,1,0-.93H39.23l.18-11.13a.49.49,0,0,1,.47-.46.47.47,0,0,1,.45.47l-.18,11.59A.47.47,0,0,1,39.69,86.23Z" fill="#d1d3d4"></path><path d="M205.25,90.51s21.52,2.27,27.2,11.59,46.37,60.65,46.37,60.65l-107-.68s-5.56-58.26,2-70.67C173.89,91.4,175.37,87.24,205.25,90.51Z" fill="#68e1fd"></path><path d="M191.31,104.07A15.28,15.28,0,0,0,202.63,110a4.66,4.66,0,0,0,1.7-.22,4.21,4.21,0,0,0,1.83-1.54c2-2.76,2.09-6.46,1.58-9.82-.35-2.37-1-4.84-2.83-6.42-2.1-1.86-5.15-2-8-2.12s-9.29-.88-10.35,2.57C185.63,95.62,189.46,101.77,191.31,104.07Z" fill="#231f20"></path><path d="M202.8,110.45h-.18A15.69,15.69,0,0,1,191,104.34h0c-2-2.48-5.81-8.69-4.79-12s6.41-3.1,9.63-2.93l1.16,0c3.11.09,6.09.33,8.23,2.23s2.68,4.68,3,6.68c.65,4.33.09,7.74-1.66,10.14a4.55,4.55,0,0,1-2,1.7A5,5,0,0,1,202.8,110.45Zm-11.15-6.66a14.81,14.81,0,0,0,11,5.78,4.22,4.22,0,0,0,1.55-.2,3.72,3.72,0,0,0,1.63-1.38c1.61-2.21,2.11-5.41,1.5-9.5-.28-1.87-.87-4.54-2.69-6.15s-4.73-1.92-7.68-2l-1.18,0c-3-.15-7.91-.4-8.74,2.31-.91,3,2.8,8.93,4.63,11.2Z" fill="#231f20"></path><path d="M209.16,68.74a7.3,7.3,0,0,1,1.41-2.6,2.43,2.43,0,0,1,2.71-.64,2.28,2.28,0,0,1,1.13,1.84,5.07,5.07,0,0,1-.36,2.2,8.75,8.75,0,0,1-2.15,3.52,5.07,5.07,0,0,1-3.77,1.48" fill="#fff"></path><path d="M208.42,75h-.32a.4.4,0,0,1-.36-.43.37.37,0,0,1,.42-.37,4.7,4.7,0,0,0,3.47-1.36,8.42,8.42,0,0,0,2-3.37,4.93,4.93,0,0,0,.35-2,1.91,1.91,0,0,0-.92-1.53,2,2,0,0,0-2.24.57,6.74,6.74,0,0,0-1.32,2.46.4.4,0,0,1-.75-.28,7.4,7.4,0,0,1,1.5-2.74,2.82,2.82,0,0,1,3.17-.72,2.72,2.72,0,0,1,1.35,2.15,5.54,5.54,0,0,1-.39,2.38,9.13,9.13,0,0,1-2.24,3.68A5.55,5.55,0,0,1,208.42,75Z" fill="#231f20"></path><path d="M203.92,82l1.18,11.79s-.57,6.7-7.94,5.37a14.92,14.92,0,0,1-10.32-7.56s.28-21.14.27-21.15c0-.86,1.75-3.82.91-11.29a18.28,18.28,0,0,0,12.81-7.3s3.42,4.22,4.86,5.52a18.28,18.28,0,0,1,3,3.31c2.27,3.43,2.19,9,1.64,13C209.9,76.91,208,82.07,203.92,82Z" fill="#fff"></path><path d="M199,99.78a11.07,11.07,0,0,1-1.92-.18,15.17,15.17,0,0,1-10.65-7.82.46.46,0,0,1-.05-.2s.28-21,.28-21.14a3.64,3.64,0,0,1,.24-1.14,23.71,23.71,0,0,0,.66-10.1.52.52,0,0,1,.1-.34.53.53,0,0,1,.31-.17,18,18,0,0,0,12.48-7.09.46.46,0,0,1,.74,0s3.41,4.2,4.8,5.47a18.32,18.32,0,0,1,3.11,3.38c2.66,4,2.08,10.63,1.71,13.28-.45,3.16-2.29,8.41-6.39,8.73l1.13,11.3A7.18,7.18,0,0,1,203,98.54,6.44,6.44,0,0,1,199,99.78Zm-11.7-8.3a14.52,14.52,0,0,0,9.94,7.22,6.47,6.47,0,0,0,5.21-.88,6.35,6.35,0,0,0,2.19-4.08L203.46,82a.52.52,0,0,1,.12-.36.5.5,0,0,1,.35-.14c3.8.11,5.55-5,6-8,.36-2.55.93-8.88-1.57-12.65a17.12,17.12,0,0,0-3-3.22,66.69,66.69,0,0,1-4.52-5.11,18.73,18.73,0,0,1-12.34,6.94,24.43,24.43,0,0,1-.74,10,4.18,4.18,0,0,0-.21.86S187.57,70.44,187.3,91.48Z" fill="#231f20"></path><path d="M204.32,85.87a10.46,10.46,0,0,1-5.75-.6c-4.2-1.47-4.44-4.33-4.44-4.33s3.53,2.22,9.79,1Z" fill="#231f20"></path><path d="M202.61,86.46a12.83,12.83,0,0,1-4.18-.77C194,84.14,193.7,81.1,193.69,81a.46.46,0,0,1,.21-.41.44.44,0,0,1,.47,0s3.48,2.11,9.47,1a.46.46,0,0,1,.34.08.45.45,0,0,1,.18.31l.39,3.8a.45.45,0,0,1-.14.45.49.49,0,0,1-.31.11A9.82,9.82,0,0,1,202.61,86.46Zm-7.77-4.69a6.25,6.25,0,0,0,3.88,3.09,10.84,10.84,0,0,0,5.12.63l-.31-3A16,16,0,0,1,194.84,81.77Z" fill="#231f20"></path><path d="M197.84,65.49s4.36,5.28,3.56,6.35-3.39.68-3.39.68" fill="#fff"></path><path d="M199.08,73a9.6,9.6,0,0,1-1.14-.08.46.46,0,0,1-.37-.51.45.45,0,0,1,.51-.37c.6.09,2.44.2,3-.5.25-.49-1.4-3.21-3.55-5.81a.44.44,0,0,1,.68-.56c1.71,2.07,4.45,5.72,3.57,6.9A3.34,3.34,0,0,1,199.08,73Z" fill="#231f20"></path><ellipse cx="204.43" cy="65.76" rx="0.65" ry="1.23" transform="translate(-6.91 27.68) rotate(-7.62)" fill="#231f20"></ellipse><ellipse cx="194.1" cy="65.47" rx="0.65" ry="1.23" transform="translate(-0.75 2.27) rotate(-0.67)" fill="#231f20"></ellipse><path d="M189.53,67.28a8.43,8.43,0,0,0-1.32-2.81,3.74,3.74,0,0,0-3.06-1.55,2.42,2.42,0,0,0-1.87,1,3.43,3.43,0,0,0-.48,1.41c-.38,2.62.49,6,3,7.39a2.61,2.61,0,0,0,2.78,0" fill="#fff"></path><path d="M187.32,73.54a3.79,3.79,0,0,1-1.75-.47c-2.62-1.44-3.57-5-3.16-7.8A3.73,3.73,0,0,1,183,63.7a2.79,2.79,0,0,1,2.17-1.18,4.15,4.15,0,0,1,3.4,1.71,8.73,8.73,0,0,1,1.39,2.93.4.4,0,0,1-.27.5.4.4,0,0,1-.49-.27,8.05,8.05,0,0,0-1.26-2.67,3.3,3.3,0,0,0-2.72-1.4,2,2,0,0,0-1.56.82,2.89,2.89,0,0,0-.41,1.24c-.37,2.52.45,5.73,2.75,7a2.26,2.26,0,0,0,2.35.07.4.4,0,1,1,.48.63A2.4,2.4,0,0,1,187.32,73.54Z" fill="#231f20"></path><path d="M230.37,157.84a.52.52,0,0,1-.51-.43c-2.62-16.37-7.64-47.56-7.87-48.5a.51.51,0,0,1,.37-.62.52.52,0,0,1,.63.37c.3,1.22,7.58,46.65,7.89,48.58a.52.52,0,0,1-.43.59Z" fill="#231f20"></path><polygon points="198.39 125.81 185.45 125.94 185.04 121.25 197.46 121.1 198.39 125.81" fill="#fff"></polygon><path d="M343.09,136.9V241.12a19.14,19.14,0,0,1-19.15,19.13H71.73A19.12,19.12,0,0,1,52.6,241.12V136.9a19.13,19.13,0,0,1,19.13-19.14H323.94A19.15,19.15,0,0,1,343.09,136.9Z" fill="#fff"></path><path d="M323.94,260.77H71.73a19.67,19.67,0,0,1-19.65-19.65V136.9a19.67,19.67,0,0,1,19.65-19.66H323.94A19.68,19.68,0,0,1,343.6,136.9V241.12A19.68,19.68,0,0,1,323.94,260.77ZM71.73,118.27A18.65,18.65,0,0,0,53.11,136.9V241.12a18.64,18.64,0,0,0,18.62,18.61H323.94a18.64,18.64,0,0,0,18.63-18.61V136.9a18.65,18.65,0,0,0-18.63-18.63Z" fill="#231f20"></path><path d="M343.09,136.9v7H52.6v-7a19.13,19.13,0,0,1,19.13-19.14H323.94A19.15,19.15,0,0,1,343.09,136.9Z" fill="#fff"></path><path d="M343.09,144.47H52.6a.52.52,0,0,1-.52-.52v-7a19.67,19.67,0,0,1,19.65-19.66H323.94A19.68,19.68,0,0,1,343.6,136.9v7A.51.51,0,0,1,343.09,144.47Zm-290-1H342.57V136.9a18.65,18.65,0,0,0-18.63-18.63H71.73A18.65,18.65,0,0,0,53.11,136.9Z" fill="#231f20"></path><path d="M283.24,226.48H101.67a10.94,10.94,0,0,1-10.93-10.93V194.07a10.94,10.94,0,0,1,10.93-10.93H283.24a10.94,10.94,0,0,1,10.93,10.93v21.48A10.94,10.94,0,0,1,283.24,226.48ZM101.67,184.17a9.91,9.91,0,0,0-9.9,9.9v21.48a9.91,9.91,0,0,0,9.9,9.9H283.24a9.9,9.9,0,0,0,9.89-9.9V194.07a9.9,9.9,0,0,0-9.89-9.9Z" fill="#68e1fd"></path><path d="M293.65,194.07v21.48A10.42,10.42,0,0,1,283.24,226H244.79V183.65h38.45A10.42,10.42,0,0,1,293.65,194.07Z" fill="#68e1fd"></path><path d="M283.24,226.48H244.79a.51.51,0,0,1-.52-.51V183.65a.51.51,0,0,1,.52-.51h38.45a10.94,10.94,0,0,1,10.93,10.93v21.48A10.94,10.94,0,0,1,283.24,226.48Zm-37.94-1h37.94a9.9,9.9,0,0,0,9.89-9.9V194.07a9.9,9.9,0,0,0-9.89-9.9H245.3Z" fill="#68e1fd"></path><text transform="translate(108.41 211.12)" font-size="21.1" font-family="MyriadPro-Regular, Myriad Pro"><tspan letter-spacing="0.01em">S</tspan><tspan x="10.53" y="0">ea</tspan><tspan x="31.27" y="0" letter-spacing="-0.01em">r</tspan><tspan x="37.96" y="0">ch...</tspan></text><path d="M265.17,210.61a10.1,10.1,0,1,1,7.14-17.24h0a10.1,10.1,0,0,1-7.14,17.24Zm0-17.19a7.08,7.08,0,1,0,5,2.07h0A7,7,0,0,0,265.17,193.42Z" fill="#fff"></path><path d="M280.66,218a1.48,1.48,0,0,1-1.09-.46l-9.4-9.86a1.5,1.5,0,1,1,2.16-2.07l9.41,9.86a1.49,1.49,0,0,1-1.08,2.53Z" fill="#fff"></path><circle cx="75.34" cy="132.03" r="3.17" fill="#68e1fd"></circle><circle cx="86.44" cy="132.03" r="3.17" fill="#d1d3d4"></circle><circle cx="97.54" cy="132.03" r="3.17" fill="#d1d3d4"></circle><path d="M197.51,153.21s7.81,2.86,10.1,2.57,9.54-3.52,10.39-2.76.58,2.86-7,6.29c0,0,19.93,10.58,18.78,11.72s-9.81-2.76-17.54-5.91c0,0-4,6.77-9.91,5.53s-9.53-6.48-9.53-6.48" fill="#fff"></path><path d="M229.08,171.69c-1.92,0-6-1.6-13.24-4.6l-3.38-1.4c-.92,1.4-4.74,6.55-10.18,5.41-6-1.26-9.67-6.45-9.82-6.67a.46.46,0,1,1,.75-.52c0,.05,3.6,5.11,9.25,6.3s9.39-5.25,9.43-5.32a.46.46,0,0,1,.57-.19l3.73,1.54c4.72,2,11.7,4.85,13.12,4.56-1.16-1.41-10.07-6.62-18.48-11.09a.44.44,0,0,1-.24-.41.47.47,0,0,1,.26-.41c6.07-2.76,6.94-4.43,7-5a.52.52,0,0,0-.17-.52c-.5-.21-3.46.82-5.42,1.5a32.32,32.32,0,0,1-4.61,1.38c-2.38.31-10-2.49-10.32-2.6a.46.46,0,0,1-.27-.59.45.45,0,0,1,.58-.27c2.15.78,8.12,2.77,9.9,2.55A30.33,30.33,0,0,0,212,154c3.9-1.35,5.69-1.88,6.33-1.31a1.44,1.44,0,0,1,.47,1.33c-.23,1.53-2.49,3.32-6.71,5.33,6,3.2,18,9.8,18.25,11.47a.64.64,0,0,1-.17.55A1.46,1.46,0,0,1,229.08,171.69Z" fill="#231f20"></path><path d="M173.89,91.4s-52.62,24.38-52.32,39.24c.38,19,66.93,38.05,66.93,38.05l10.31-19.82-42.46-20.31,31.39-17.11Z" fill="#68e1fd"></path><path d="M253.05,114.13c-2.87-.93-6.28-1.52-8.7.29a9.91,9.91,0,0,0-2.62,3.56,64.3,64.3,0,0,0-3.41,8.08c-.25.72-.41,1.68.21,2.11s1.72-.31,2.21-1.1a18.23,18.23,0,0,0,2-4.51,27.12,27.12,0,0,0-2.26,7.14,1.6,1.6,0,0,0,0,.92,1.14,1.14,0,0,0,1.52.4,3.16,3.16,0,0,0,1.17-1.28,33.37,33.37,0,0,0,3-6.62,23.34,23.34,0,0,0-1.42,7.4,1.5,1.5,0,0,0,.4,1.17,1.12,1.12,0,0,0,1.33-.09,3.19,3.19,0,0,0,.79-1.18l3-6.3a29.18,29.18,0,0,0-1.09,7.2,1.08,1.08,0,0,0,.09.59c.34.64,1.33.21,1.76-.38a9.63,9.63,0,0,0,1.33-3.3c.82-3.09,1.53-6.24,2.47-9.29C255.73,116.45,256,115.09,253.05,114.13Z" fill="#fff"></path><path d="M249.93,132.68h-.09a1,1,0,0,1-.86-.55,1.65,1.65,0,0,1-.14-.83,29.84,29.84,0,0,1,.3-3.53l-1.36,2.85a3.71,3.71,0,0,1-.93,1.33,1.55,1.55,0,0,1-1.89.1,2,2,0,0,1-.58-1.51,15.33,15.33,0,0,1,.11-2.15c-.28.54-.58,1.07-.89,1.59a3.52,3.52,0,0,1-1.36,1.45,1.76,1.76,0,0,1-1.37.08,1.35,1.35,0,0,1-.77-.71,2,2,0,0,1-.06-1.18c.08-.45.17-.9.26-1.35a2.17,2.17,0,0,1-1,.49,1.38,1.38,0,0,1-1.08-.21c-.47-.33-.92-1.05-.38-2.63a63.43,63.43,0,0,1,3.44-8.14,10.12,10.12,0,0,1,2.75-3.73c2.08-1.56,5.07-1.67,9.12-.35,3.51,1.14,2.9,3.1,2.19,5.38-.63,2-1.16,4.12-1.67,6.15-.26,1-.52,2.08-.8,3.11a10.17,10.17,0,0,1-1.4,3.46A2.16,2.16,0,0,1,249.93,132.68Zm.46-9a.45.45,0,0,1,.16,0,.48.48,0,0,1,.28.56,29.17,29.17,0,0,0-1.08,7.08,1.05,1.05,0,0,0,0,.37s.05.06.12.07a1.38,1.38,0,0,0,.87-.51,9.34,9.34,0,0,0,1.26-3.15c.28-1,.54-2.07.8-3.1.51-2.05,1-4.16,1.68-6.2.78-2.51.92-3.42-1.61-4.25h0c-3.75-1.22-6.45-1.14-8.28.22a9.44,9.44,0,0,0-2.49,3.41,65.77,65.77,0,0,0-3.39,8c-.13.38-.38,1.29,0,1.59a.46.46,0,0,0,.38.07,2.29,2.29,0,0,0,1.18-1c.24-.39.47-.79.68-1.2a27.87,27.87,0,0,1,1.31-3.27.47.47,0,0,1,.58-.23.46.46,0,0,1,.27.56,18.74,18.74,0,0,1-1.31,3.3,25.6,25.6,0,0,0-.94,3.79,1.18,1.18,0,0,0,0,.65.41.41,0,0,0,.25.22.84.84,0,0,0,.64,0,2.65,2.65,0,0,0,1-1.1,33,33,0,0,0,3-6.53.45.45,0,0,1,.57-.29.46.46,0,0,1,.3.57,22.37,22.37,0,0,0-1.4,7.25,1.16,1.16,0,0,0,.23.83.66.66,0,0,0,.75-.1,2.84,2.84,0,0,0,.67-1l3-6.31A.45.45,0,0,1,250.39,123.66Z" fill="#231f20"></path><path d="M205.17,74.09s-7.73,9.73-13.37-1" fill="#fff"></path><path d="M198.19,78.56l-.54,0c-2.43-.23-4.53-2-6.25-5.29a.46.46,0,0,1,.19-.6.44.44,0,0,1,.6.19c1.57,3,3.43,4.62,5.54,4.82,3.71.35,7.06-3.81,7.1-3.85a.44.44,0,1,1,.69.55C205.38,74.54,202.14,78.56,198.19,78.56Z" fill="#231f20"></path><path d="M266.76,109.93a.43.43,0,0,1-.33-.14.46.46,0,0,1,0-.65c5.4-5.18,6.64-16.14-.13-24.21-7-8.3-18.11-9.91-24.14-10.13-1.31,0-2.65-.06-4-.07-6,0-12.13-.06-16.87-3.63-2.75-2.06-4.64-6.25-6.64-10.68-2.59-5.72-5.26-11.64-9.81-12.33a5.51,5.51,0,0,0-2.31.39,4.39,4.39,0,0,1-4.81-.54l-.33-.21c-3.93-2.47-9.28-2.43-14.34.11-6.63,3.34-9.59,10.93-10.15,16.92-.65,7,1.07,13.92,2.74,20.63a.46.46,0,0,1-.33.56.47.47,0,0,1-.56-.34c-1.69-6.78-3.43-13.79-2.77-20.94.74-8,4.83-14.72,10.66-17.65,5.34-2.69,11-2.72,15.24-.07l.35.22a3.51,3.51,0,0,0,4,.43,6.15,6.15,0,0,1,2.73-.42c5,.76,7.82,6.91,10.51,12.86,1.95,4.32,3.79,8.4,6.35,10.33,4.5,3.38,10.51,3.41,16.32,3.44,1.36,0,2.71,0,4,.07,6.17.22,17.61,1.88,24.81,10.46s5.76,20,.06,25.46A.44.44,0,0,1,266.76,109.93Z" fill="#231f20"></path><path d="M150.85,131.4a.46.46,0,0,1-.21-.87l34.48-17.84a.47.47,0,0,1,.62.2.45.45,0,0,1-.2.62l-34.48,17.84A.54.54,0,0,1,150.85,131.4Z" fill="#231f20"></path><rect x="102.31" y="46.88" width="43.41" height="34.73" fill="#fff"></rect><path d="M145.72,82.07H102.31a.47.47,0,0,1-.46-.46V46.88a.46.46,0,0,1,.46-.46h43.41a.46.46,0,0,1,.46.46V81.61A.47.47,0,0,1,145.72,82.07Zm-42.95-.92h42.49V47.34H102.77Z" fill="#d1d3d4"></path><path d="M102.13,74a.46.46,0,0,1-.33-.78L116,59a4.32,4.32,0,0,1,6.34.25L133.7,72.53a.47.47,0,0,1,0,.65.45.45,0,0,1-.65-.05L121.67,59.87a3.32,3.32,0,0,0-2.45-1.19,3.37,3.37,0,0,0-2.54,1L102.45,73.9A.44.44,0,0,1,102.13,74Z" fill="#d1d3d4"></path><path d="M145.73,70.71a.45.45,0,0,1-.34-.15l-6-6.53a3.36,3.36,0,0,0-2.49-1.09h0a3.36,3.36,0,0,0-2.5,1.1L130,68.8a.46.46,0,1,1-.68-.62l4.37-4.76a4.34,4.34,0,0,1,3.18-1.4h0A4.33,4.33,0,0,1,140,63.41l6,6.52a.46.46,0,0,1-.33.78Z" fill="#d1d3d4"></path><circle cx="130.58" cy="54.17" r="2.4" fill="#fff"></circle><path d="M130.58,57a2.87,2.87,0,1,1,2.86-2.87A2.87,2.87,0,0,1,130.58,57Zm0-4.81a1.95,1.95,0,1,0,1.94,1.94A1.94,1.94,0,0,0,130.58,52.23Z" fill="#d1d3d4"></path><path d="M341.68,100.83l-20.32,10.58a2,2,0,0,1-2.9-1.76V88.48a2,2,0,0,1,2.9-1.76L341.68,97.3A2,2,0,0,1,341.68,100.83Z" fill="#fff"></path><path d="M320.44,112.1a2.45,2.45,0,0,1-2.44-2.45V88.48a2.44,2.44,0,0,1,3.57-2.17L341.89,96.9a2.44,2.44,0,0,1,0,4.34l-20.32,10.58A2.52,2.52,0,0,1,320.44,112.1Zm0-25.14a1.52,1.52,0,0,0-1.52,1.52v21.17a1.52,1.52,0,0,0,2.23,1.35l20.31-10.58h0a1.53,1.53,0,0,0,0-2.71L321.15,87.13A1.51,1.51,0,0,0,320.44,87Z" fill="#d1d3d4"></path></g></svg>